/* XPM */
static char *a323eb34889c4a63d8d985b95ae77e45C8iA1c24sLXSRNEw[] = {
/* columns rows colors chars-per-pixel */
"64 64 45 1 ",
"  c None",
". c black",
"X c gray11",
"o c #231C0A",
"O c #312611",
"+ c #372914",
"@ c #382A15",
"# c #3E3014",
"$ c #3F3014",
"% c #3E3114",
"& c #3F3114",
"* c #3E3015",
"= c #3F3015",
"- c #3E3115",
"; c #3F3115",
": c #252525",
"> c gray15",
", c gray19",
"< c #313131",
"1 c #3E3E3E",
"2 c #3F3F3F",
"3 c #493418",
"4 c #50381C",
"5 c #5E3F1F",
"6 c #654122",
"7 c #654223",
"8 c #704626",
"9 c #774D2A",
"0 c #7E502D",
"q c #484848",
"w c #494949",
"e c #565656",
"r c gray34",
"t c gray38",
"y c #626262",
"u c gray42",
"i c #6C6C6C",
"p c #797979",
"a c gray48",
"s c #885431",
"d c #8C5734",
"f c #935B38",
"g c #9D623B",
"h c #A4693F",
"j c gray52",
/* pixels */
"                                                                ",
"                                                                ",
"                                                                ",
"                                                                ",
"                                                                ",
"                                                                ",
"                                                                ",
"                                                                ",
"                                                                ",
"                                                                ",
"                                                                ",
"                                                                ",
"                                                                ",
"                                                                ",
"                                                                ",
"                                                                ",
"                                                                ",
"                                                                ",
"                                                                ",
"                                                                ",
"                                                                ",
"                                                                ",
"                                                                ",
"                                                                ",
"                                                                ",
"                                                                ",
"                                                                ",
"                                                                ",
"                                                                ",
"                                                                ",
"                                                                ",
"                       yyyyyyyyyiuuiiiaaaa                      ",
"                     iywwwwwwwwwwwrrrrryyyai                    ",
"                    iaw<XXXX>>>>>>><<2222wywy                   ",
"                    iiajjaaiiiiiyyyyrrrrww2,<                   ",
"                   ssiiaaiiyyyrrrrwww222<<<,;;                  ",
"                   9d0ss98887777555444;;;;;;3;                  ",
"                  s9ddghshggd0ffds075877375;34;                 ",
"                  9d9ghdfhgg09ffds0758875475;4%                 ",
"                  9d9ghshggg00ffds0848887375;42                 ",
"                 wriayhshggf0ffds0984888732222,                 ",
"                 wyiiaajaiiiiyyyyyrrrrrwwww<<<<%                ",
"                 wuiiiiayyyyrrrrwwwwww2222<<<<,%                ",
"                 97wryiiyyyyrrrrwwwwww22222<,,4%                ",
"                 9d9gdd4s098;7775555o4;;;;344;4%                ",
"                 9d9ghhdhggg0fdss098488875344;43                ",
"                 9d9ghhdhggg0fdss098488875344;4@                ",
"                 9d9ghhdhggg9fdss098488875344;4;                ",
"                 9d9ghhdhggg9fdss098488875344@4%                ",
"                 9d9ghhdhggg9fdss09848887534434%                ",
"                 9d9ghhdhggg9fdss098488875344%4%                ",
"                 id9ghhshggg8fdss098488875344%22                ",
"                 yaaaihshggg8fdss09848887532222<                ",
"                 riiiajaiiiiiyyyyyrrrrrwwww2<<<                 ",
"                 wryiiaiyyyyrrrrwwwwww22222<<<<+                ",
"                  7wrrryyyyyrrrrwwwwww22222@@@34                ",
"                  9988888855O5544444o4444++4;4;4                ",
"                  9d9fhshffs7s00009848875;44;4;                 ",
"                   9ddg9fffs7900009548875;44;4;                 ",
"                   yd9dd9ffs7800098448874;4;4;                  ",
"                   yajad9sss87999984587534%;@<                  ",
"                    iiiaaaaiiiyyrrrwww222<,:                    ",
"                     iyiiyyyrrrrwwww222<<<>>                    ",
"                       wwwww22222<<<<>>>>>.                     "
};
